<?xml version="1.0" standalone="no"?>
<!DOCTYPE svg PUBLIC "-//W3C//DTD SVG 20010904//EN"
 "http://www.w3.org/TR/2001/REC-SVG-20010904/DTD/svg10.dtd">
<svg version="1.0" xmlns="http://www.w3.org/2000/svg"
 width="412.000000pt" height="412.000000pt" viewBox="0 0 412.000000 412.000000"
 preserveAspectRatio="xMidYMid meet">
<metadata>
Created by potrace 1.11, written by Peter Selinger 2001-2013
</metadata>
<g transform="translate(0.000000,412.000000) scale(0.100000,-0.100000)"
fill="#000000" stroke="none">
<path d="M2052 4038 c-7 -7 -12 -17 -12 -22 0 -6 -21 -65 -46 -131 -25 -66
-54 -142 -63 -170 -37 -100 -352 -941 -361 -960 -5 -11 -86 -227 -180 -480
-94 -253 -182 -487 -195 -520 -12 -33 -33 -88 -45 -122 l-23 -63 -413 0 -414
0 0 -310 0 -310 295 0 c162 0 295 -2 295 -5 0 -3 -241 -649 -280 -750 -6 -16
-7 -25 -3 -20 5 6 82 182 172 393 l163 382 1118 0 c885 0 1119 -3 1123 -12 11
-29 260 -605 280 -652 32 -71 48 -104 44 -86 -4 13 -140 377 -248 662 -16 43
-29 80 -29 83 0 3 133 5 295 5 l295 0 0 310 0 310 -413 0 -413 0 -323 863
c-178 474 -354 943 -391 1042 -38 99 -102 269 -142 377 -57 152 -77 195 -86
186z m317 -1201 c168 -391 314 -734 327 -762 24 -55 203 -473 211 -492 4 -10
-169 -13 -847 -13 -678 0 -851 3 -847 13 13 32 199 464 207 482 5 11 52 121
105 245 53 124 104 243 114 265 10 22 107 250 217 507 109 257 201 468 204
468 3 0 142 -321 309 -713z m-1979 -1447 c0 -143 1 -150 20 -150 19 0 20 7 20
150 l0 150 70 0 70 0 0 -75 c0 -68 2 -75 20 -75 18 0 20 7 20 75 l0 75 70 0
70 0 0 -75 c0 -68 2 -75 20 -75 18 0 20 7 20 75 l0 75 80 0 80 0 0 -150 c0
-143 1 -150 20 -150 19 0 20 7 20 150 l0 150 60 0 c33 0 60 -3 60 -7 0 -5 -15
-48 -34 -98 -19 -49 -65 -172 -102 -271 l-68 -181 -288 -1 -288 -1 0 280 0
279 30 0 30 0 0 -150z m920 75 c0 -68 2 -75 20 -75 18 0 20 7 20 75 l0 75 75
0 75 0 0 -150 c0 -143 1 -150 20 -150 19 0 20 7 20 150 l0 150 70 0 70 0 0
-75 c0 -68 2 -75 20 -75 18 0 20 7 20 75 l0 75 70 0 70 0 0 -75 c0 -68 2 -75
20 -75 18 0 20 7 20 75 l0 75 75 0 75 0 0 -150 c0 -143 1 -150 20 -150 19 0
20 7 20 150 l0 150 70 0 70 0 0 -75 c0 -68 2 -75 20 -75 18 0 20 7 20 75 l0
75 70 0 70 0 0 -75 c0 -68 2 -75 20 -75 18 0 20 7 20 75 l0 75 75 0 75 0 0
-150 c0 -143 1 -150 20 -150 19 0 20 7 20 150 l0 150 70 0 70 0 0 -75 c0 -68
2 -75 20 -75 18 0 20 7 20 75 l0 75 54 0 c54 0 54 0 70 -40 9 -22 16 -56 16
-74 0 -23 5 -36 16 -38 9 -2 46 -73 95 -188 43 -101 81 -192 84 -201 5 -16
-68 -17 -1095 -17 -1028 0 -1100 1 -1095 17 3 9 41 100 84 201 63 147 84 186
100 188 18 3 21 11 21 46 0 24 5 57 11 75 11 30 13 31 70 31 l59 0 0 -75z
m1840 -75 c0 -143 1 -150 20 -150 19 0 20 7 20 150 l0 150 70 0 70 0 0 -75 c0
-68 2 -75 20 -75 18 0 20 7 20 75 l0 75 70 0 70 0 0 -75 c0 -68 2 -75 20 -75
18 0 20 7 20 75 l0 75 70 0 70 0 0 -150 c0 -143 1 -150 20 -150 19 0 20 7 20
150 l0 150 30 0 30 0 0 -279 0 -279 -285 0 c-260 0 -286 1 -294 17 -12 21
-201 525 -201 534 0 4 32 7 70 7 l70 0 0 -150z"/>
</g>
</svg>
